# xmcd
#
# Track frame offsets: 
#        150
#        18730
#        30762
#        42550
#        59382
#        78732
#        90317
#        105245
#        115088
#        127141
#        150211
#
# Disc length: 2281 seconds
#
# Revision: 4
# Processed by: cddbd v1.5.2PL0 Copyright (c) Steve Scherf et al.
# Submitted via: ExactAudioCopy v1.0b3
#
DISCID=7c08e70b
DTITLE=Blakroc - Blakroc
DYEAR=2009
DGENRE=Rock
TTITLE0=Coochie
TTITLE1=On The Vista
TTITLE2=Hard Times
TTITLE3=Dollaz and Sense
TTITLE4=Why Can't I Forget Him
TTITLE5=Stay Of The Fuckin' Flowers
TTITLE6=Ain't Nothing Like You
TTITLE7=Hope You're Happy
TTITLE8=Tellin' Me Things
TTITLE9=What You Do To Me
TTITLE10=Done Did It
EXTD=YEAR: 2009
EXTT0=
EXTT1=
EXTT2=
EXTT3=
EXTT4=
EXTT5=
EXTT6=
EXTT7=
EXTT8=
EXTT9=
EXTT10=
PLAYORDER=
